inDegrees=no
num_controls=7
num_derivatives=13
num_iterations=99
num_multipliers=7
num_parameters=0
num_slacks=7
num_states=26
objective=5.432613
objective_accelerations=0.797694
objective_balance=0.024858
objective_effort=0.246641
objective_height=4.264438
objective_ligament=0.098982
solver_duration=1147.744841
status=Solve_Succeeded
success=true
DataType=double
version=3
OpenSimVersion=4.4-2022-07-23-0e9fedc
endheader
time	/jointset/ground_pelvis/pelvis_tilt/value	/jointset/ground_pelvis/pelvis_tx/value	/jointset/ground_pelvis/pelvis_ty/value	/jointset/hip_l/hip_flexion_l/value	/jointset/hip_l/hip_adduction_l/value	/jointset/hip_l/hip_rotation_l/value	/jointset/back/lumbar_extension/value	/jointset/patellofemoral_l/patellar_flexion_l/value	/jointset/knee_l/knee_flexion_l/value	/jointset/knee_l/knee_adduction_l/value	/jointset/knee_l/knee_rotation_l/value	/jointset/ankle_l/ankle_angle_l/value	/jointset/subtalar_l/subtalar_angle_l/value	/jointset/ground_pelvis/pelvis_tilt/speed	/jointset/ground_pelvis/pelvis_tx/speed	/jointset/ground_pelvis/pelvis_ty/speed	/jointset/hip_l/hip_flexion_l/speed	/jointset/hip_l/hip_adduction_l/speed	/jointset/hip_l/hip_rotation_l/speed	/jointset/back/lumbar_extension/speed	/jointset/patellofemoral_l/patellar_flexion_l/speed	/jointset/knee_l/knee_flexion_l/speed	/jointset/knee_l/knee_adduction_l/speed	/jointset/knee_l/knee_rotation_l/speed	/jointset/ankle_l/ankle_angle_l/speed	/jointset/subtalar_l/subtalar_angle_l/speed	/forceset/tau_hip_flexion_l	/forceset/tau_hip_adduction_l	/forceset/tau_hip_rotation_l	/forceset/tau_knee_flexion_l	/forceset/tau_ankle_angle_l	/forceset/tau_subtalar_angle_l	/forceset/tau_lumbar_extension	lambda_cid13_p0	lambda_cid13_p1	lambda_cid13_p2	lambda_cid13_p3	lambda_cid13_p4	lambda_cid13_p5	lambda_cid14_p0	/jointset/ground_pelvis/pelvis_tilt/accel	/jointset/ground_pelvis/pelvis_tx/accel	/jointset/ground_pelvis/pelvis_ty/accel	/jointset/hip_l/hip_flexion_l/accel	/jointset/hip_l/hip_adduction_l/accel	/jointset/hip_l/hip_rotation_l/accel	/jointset/back/lumbar_extension/accel	/jointset/patellofemoral_l/patellar_flexion_l/accel	/jointset/knee_l/knee_flexion_l/accel	/jointset/knee_l/knee_adduction_l/accel	/jointset/knee_l/knee_rotation_l/accel	/jointset/ankle_l/ankle_angle_l/accel	/jointset/subtalar_l/subtalar_angle_l/accel	gamma_cid13_p0	gamma_cid13_p1	gamma_cid13_p2	gamma_cid13_p3	gamma_cid13_p4	gamma_cid13_p5	gamma_cid14_p0
1	-0.8583179805121447	-0.176505238674101	0.5660165672034208	2.181657368554898	-0.3275547862088993	0.08443586773894907	-0.4362987553965944	1.185362101744055	1.185362101743954	0.009928023436552053	-0.1744495024504182	0.0004339629095693861	0.09269506158341427	-0.1857049656195224	0.008633984682897779	0.03642711899174551	0.02266423761748705	-0.01026192911086902	-0.05636017107212443	0.0002628741015795929	-0.16838585295574	-0.1683858529556671	-0.01324978735004776	8.214710390536109e-05	-0.01744889850233227	-0.01508883301002318	-0.3959748798785565	-0.01773655387519948	-0.007268443891478076	-0.1516849417612349	0.132506183555865	0.01376855693293843	0.2895578348086933	11.22926984622691	-3.744573569181789	-4.482888698494343	-5.297826019847292	-555.5001703227443	-68.06711791901749	-0.2946302662924617	3.079879842805797	0.6645572132546024	2.037600462183771	-8.082369340414456	-0.3480329561528312	-1.404905535751221	-0.01172294057311819	-4.326760269358501	-4.326760269358741	-0.4924056379049014	-0.02397432024960435	0.3816507396633297	-0.222823709363488	-1.002690213729493e-08	-5.708571959966016e-08	-1.704591761284124e-08	-6.276935754933274e-09	-1.186451563337672e-08	3.985931406245849e-08	-1.464476361297502e-08
1.01	-0.8600219540368205	-0.1763857695127222	0.5664824654979718	2.181481153428345	-0.3276738775098127	0.08380291025003603	-0.4362954220256801	1.183461871809613	1.18346187181019	0.009771359528944076	-0.1744483740536445	0.0002782522019543987	0.09253388156376445	-0.1550617310835244	0.01526352349028105	0.05673801255811716	-0.05790026953666937	-0.01354705347919456	-0.0702266223116662	0.0004000204883880446	-0.211655308446977	-0.2116553084469713	-0.01808191236603839	0.0001440486557549375	-0.01372394059333175	-0.01714705216901022	-0.3963907492164626	-0.0174559708158935	-0.007272818022270177	-0.1506916518797038	0.1316883596884509	0.01392449691677513	0.2897458891221643	10.99556531606503	-3.805009071486258	-4.434839439016693	-5.29428220478458	-555.2919064731668	-67.99385928191936	-0.3097830033339784	3.060743604689336	0.6627012730401916	2.025651110387317	-8.042445653822726	-0.3173482789731408	-1.376825411983257	0.02586648431200287	-4.326310780498622	-4.326310780508498	-0.4784719664926807	0.02134964050435418	0.36330893778808	-0.1972891776702795	-1.06695015829336e-08	-6.835624648679335e-08	-2.463823279068181e-08	-1.160398389673875e-08	-1.789502809605925e-08	5.405853932545034e-08	-1.78867446944311e-08
1.02	-0.861418655547066	-0.1761998951515603	0.5671510361894797	2.180499502379878	-0.3278255392748227	0.08303142615013188	-0.4362908305798612	1.181129092802013	1.181129092802945	0.009566403162934488	-0.174446611191948	0.0001588691978887705	0.09235212572082775	-0.1242505627200392	0.02191502463949472	0.07696159838337918	-0.1384229467271922	-0.01677602191958843	-0.08406549330822156	0.0005144891151052538	-0.2548956675979524	-0.2548956675980126	-0.02290827870387958	0.0002090401116273247	-0.01018335783353849	-0.0192039976681715	-0.3968066185532508	-0.01717538775627341	-0.007277192162751463	-0.1496983619990296	0.1308705358208175	0.01408043690098108	0.2899339434372265	10.7588475032773	-3.866022315337064	-4.38543509467459	-5.309665440534049	-555.1571438629878	-67.91236236183717	-0.3289295855825726	3.113466608299964	0.6689496816226328	2.020138913962445	-8.074003347687242	-0.336801770567023	-1.399389487154223	-0.01625849259385533	-4.320941001305266	-4.320941001305245	-0.4912539022752436	-0.02335633944580483	0.3447757098258203	-0.222568977397715	-1.036652199612533e-08	-7.891143902976105e-08	-3.247750904583696e-08	-1.879573561593662e-08	-2.221813092206231e-08	6.615764296364125e-08	-2.091477346881144e-08
1.03	-0.8625065153362259	-0.1759473345861884	0.5680213344170427	2.178713037764931	-0.3280091997655082	0.08212171640463657	-0.4362853460320565	1.178364144286084	1.178364144286798	0.009313196017210435	-0.17444421639051	7.396854780209852e-05	0.09214981551923326	-0.09330606582977147	0.02860669980820686	0.09707635491155807	-0.2188415796032593	-0.01994323264143958	-0.09786899531677597	0.0005663872391047966	-0.2980807675754991	-0.2980807675754423	-0.02773067658062321	0.0002706018343741058	-0.006827122159969948	-0.02125425470533421	-0.3965830915397122	-0.01688587256813491	-0.007256633519626521	-0.1489242777516937	0.1304469531182645	0.01427839517907671	0.2897324717964405	10.67483726256763	-3.957667769331065	-4.347543631566301	-5.489553110991624	-554.6550784123452	-67.88502139114705	-0.3524139757640498	3.087236270829165	0.6707129022660845	2.003884861182355	-8.021538672551216	-0.3047360993248191	-1.369732833651177	0.01350897392177137	-4.315299485232044	-4.315299485215269	-0.4773866554041677	0.02101311175641929	0.3264893270837492	-0.1956665902206423	-1.005389364367984e-08	-8.945933224268625e-08	-4.031930531198512e-08	-2.600651492265892e-08	-2.652381120075231e-08	7.823531678933418e-08	-2.394061905638487e-08
1.04	-0.8632844711482225	-0.1756275699755805	0.5690921283776651	2.176123237738125	-0.3282241434387295	0.08107419118410879	-0.436279823501079	1.175167743772553	1.175167743773023	0.009011834106874133	-0.1744411858352734	2.171862045153994e-05	0.09192712024260211	-0.06226976728220721	0.03535583368667183	0.1170607449955118	-0.2990900290788805	-0.0230326584165693	-0.1116285883630729	0.0005220857238705887	-0.3411860671231535	-0.3411860671229753	-0.03253923145858998	0.0003361909019273119	-0.00365321324790908	-0.0232810126763039	-0.3963595645264792	-0.01659635737980052	-0.007236074882210954	-0.1481501935045245	0.1300233704158612	0.01447635345748383	0.2895310001553742	10.58769731216283	-4.050002444582899	-4.308128697778734	-5.687025688518855	-554.227232421325	-67.85078343399245	-0.3806026679909431	3.13182693975586	0.6804414235755998	1.994065625118261	-8.039966667598126	-0.3212447812234117	-1.390607694703093	-0.03549842044340626	-4.304980915325841	-4.304980915324905	-0.4884853025201695	-0.02255087048542598	0.3083103575290976	-0.2178691641583449	-9.520929754749846e-09	-9.880557007489925e-08	-4.765038613769167e-08	-3.274216056030012e-08	-3.022970116175359e-08	8.835030571660111e-08	-2.645130830763056e-08
1.05	-0.8637516714003487	-0.1752399330641045	0.570362048606439	2.172731958525766	-0.3284695963186893	0.07988930120237435	-0.4362752019961001	1.171540847639308	1.171540847640125	0.008662456120092579	-0.1744375447376444	3.782785279811852e-07	0.09168429491407561	-0.03116382672178944	0.04219023521602826	0.1368949651384271	-0.3791205141093454	-0.02604164375341821	-0.1253390646638508	0.0003907294356582504	-0.384164340202252	-0.384164340202173	-0.03733050585308422	0.0003919314512054116	-0.0006362214587739947	-0.02527411552318197	-0.3956493309056121	-0.01631057389966443	-0.007192035943296688	-0.1475523731401557	0.1300122904878334	0.01471492031053321	0.2890723831918187	10.65601697540274	-4.173400925376786	-4.279515916258681	-6.091154768530728	-553.5201883432489	-67.86964162384645	-0.4139476205341593	3.100940459156791	0.6877345523028129	1.973843046461106	-7.977800872577706	-0.2882609514979431	-1.359741802959139	-0.003677117926684783	-4.289921789854685	-4.289921789871809	-0.4736003594401909	0.01961900526857879	0.2951822425187239	-0.1885162140552711	-8.981080380304711e-09	-1.08114256176465e-07	-5.496550710588443e-08	-3.946295827078254e-08	-3.391684767532711e-08	9.840396074079225e-08	-2.894589892336602e-08
1.06	-0.8639076196778446	-0.1747833931304054	0.5718294596041514	2.168541732172623	-0.3287446461603725	0.07856761161686872	-0.4362722386306308	1.167485034518142	1.167485034519373	0.00826533501893321	-0.1744333497371772	8.565583176012381e-06	0.09142184148326418	-1.937236276569914e-05	0.04913643813129624	0.1565588987834427	-0.4588794572122565	-0.02895205075361531	-0.138988509172352	0.0001904577505922679	-0.4269694647074214	-0.4269694647074459	-0.04208785430866115	0.0004469715058053289	0.002252316446920112	-0.02720663313416901	-0.3949390972853509	-0.01602479041937935	-0.007147997006363844	-0.1469545527755818	0.1300012105600727	0.01495348716383082	0.2886137662275577	10.72113258056248	-4.297664819675485	-4.249135464211456	-6.511891890895454	-552.8875214425566	-67.88329275903959	-0.4529209680456188	3.139529699474557	0.7028017007593326	1.960008325538762	-7.98565828208672	-0.3015291138937042	-1.378401336248188	-0.04928149981560009	-4.270351200539552	-4.270351200539461	-0.4817001147370245	-0.02269096942190687	0.2826195808436782	-0.2057521169798969	-8.425991540550681e-09	-1.153765791009785e-07	-5.9912856746285e-08	-4.486980850873227e-08	-3.736174124339151e-08	1.066962651040187e-07	-3.096951103513393e-08
